<svg xmlns="http://www.w3.org/2000/svg" xmlns:xlink="http://www.w3.org/1999/xlink" viewBox="0 0 171.56 161"><defs><style>.cls-1{fill:none;}.cls-2{fill:#fdf7fa;}.cls-3{fill:url(#新規パターンスウォッチ_4);}</style><pattern id="新規パターンスウォッチ_4" data-name="新規パターンスウォッチ 4" width="4.11" height="4.11" patternTransform="translate(0 -16.88)" patternUnits="userSpaceOnUse" viewBox="0 0 4.11 4.11"><rect class="cls-1" width="4.11" height="4.11"/><path class="cls-2" d="M4.11,0V4.11H0V0ZM3.6,2.05A1.55,1.55,0,1,0,2.05,3.6,1.54,1.54,0,0,0,3.6,2.05Z"/><path class="cls-1" d="M3.6,2.05A1.55,1.55,0,1,1,2.05.51,1.54,1.54,0,0,1,3.6,2.05Z"/></pattern></defs><title>Asset 14</title><g id="Layer_2" data-name="Layer 2"><g id="装飾"><path class="cls-2" d="M149.27,124.43l-41.69,35.78a3.28,3.28,0,0,1-5.35-1.88l-10.14-54a3.28,3.28,0,0,1,4.31-3.69l51.82,18.21A3.27,3.27,0,0,1,149.27,124.43Z"/><path class="cls-2" d="M167.15,106.49l-13.32-2.19L98.32,95.14a3.51,3.51,0,0,1-.58-.14l-.19-.07-.22-.09,0,0-.1,0-.13-.07-.13-.08a3.28,3.28,0,0,1-.44-.32l-.09-.08h0l-.08-.08,0,0a.23.23,0,0,1-.07-.07l0,0-.07-.07,0,0a.39.39,0,0,0-.08-.1l-.07-.1,0,0,0-.06,0-.06,0-.07,0,0-.06-.11a.75.75,0,0,1-.07-.12l-.06-.1s0,0,0,0a.54.54,0,0,1,0-.11h0l0-.09s0,0,0-.05a.3.3,0,0,1,0-.1h0l0-.1s0,0,0,0a.19.19,0,0,1,0-.08.14.14,0,0,1,0-.06s0,0,0-.06,0,0,0-.08,0,0,0,0a.64.64,0,0,0,0-.07s0-.07,0-.1,0-.08,0-.12,0,0,0-.07,0,0,0-.05v-.07a0,0,0,0,1,0,0h0v-.06h0a.38.38,0,0,1,0-.1v-.22A3.74,3.74,0,0,1,96,89l26.07-31.78,2.39-2.91,7.37-9L140.24,35a4.1,4.1,0,0,1,1.07-.9,3.88,3.88,0,0,0-1.08.91l-8.46,10.32-7.34,8.94L122,57.25,96,89a4,4,0,0,0-.57.94s0,.07,0,.11a3.77,3.77,0,0,0-.08,2.5l0,.09.06.17c0,.06.05.12.08.19l.11.21c.05.09.1.18.16.27l0,.08a.22.22,0,0,1,0,.08l.17.21.06.07.07.08.07.07a3.45,3.45,0,0,0,1,.72,3.83,3.83,0,0,0,1.14.38l68.83,11.35a3.78,3.78,0,0,0,2.23-.3A3.81,3.81,0,0,1,167.15,106.49Z"/><path class="cls-2" d="M74,96.71l9.61,1.59.2,0-.2,0Z"/><path class="cls-2" d="M74.34,109.58l-3.44-9.12A2.8,2.8,0,0,1,74,96.71L44.44,91.84a2.8,2.8,0,0,0-3.08,3.75l14,37.14a2.8,2.8,0,0,0,4.78.78l19-23.14A2.79,2.79,0,0,1,74.34,109.58ZM59.55,111.9a3.39,3.39,0,1,1-2.44-4.12A3.39,3.39,0,0,1,59.55,111.9Z"/><path class="cls-2" d="M83.09,91.77,2.79,63.55a4.18,4.18,0,0,1-1.33-7.11L66.05,1a4.17,4.17,0,0,1,6.82,2.4L88.58,87.06A4.18,4.18,0,0,1,83.09,91.77Z"/><path class="cls-3" d="M169.51,106.13l-.15.07a3.81,3.81,0,0,1-2.21.29l-13.32-2.19a3.81,3.81,0,0,0,4-5.12L138.09,46.64a3.8,3.8,0,0,0-6.26-1.34L140.24,35a4.1,4.1,0,0,1,1.07-.9l0,0,.07,0,.08,0a3.8,3.8,0,0,1,5.24,2.07l24.58,65.29A3.81,3.81,0,0,1,169.51,106.13Z"/><path class="cls-2" d="M98.32,95.14a3.51,3.51,0,0,1-.58-.14,3.82,3.82,0,0,1-2.6-3.32v-.31A3.74,3.74,0,0,1,96,89l26.07-31.78,2.39-2.91,7.37-9-.06.07-.18.2-7.2,8.77-2.48,3L96,89l-.21.27,0,.05a.41.41,0,0,0,0,.09l-.08.13a3.76,3.76,0,0,0-.29,3.11l.06.17c0,.06.05.12.08.19l.11.21c.05.09.1.18.16.27l0,.08a.22.22,0,0,1,0,.08l.17.21.06.07.07.08a3.81,3.81,0,0,0,1.31.91h0a3.72,3.72,0,0,0,.84.24l55.4,9.14.13,0Z"/><path class="cls-2" d="M153.83,104.3,98.32,95.14a3.51,3.51,0,0,1-.58-.14,2.78,2.78,0,0,0,.5.11l43.52,7.18a3.8,3.8,0,0,0,4.18-5.09L130.39,55.92a3.8,3.8,0,0,0-5.93-1.64l7.37-9a3.8,3.8,0,0,1,6.26,1.34l19.79,52.54A3.81,3.81,0,0,1,153.83,104.3Z"/><path class="cls-2" d="M122.07,57.19l2.39-2.91,0,0,0,0a4.84,4.84,0,0,0-.5.51L95.92,89a3.81,3.81,0,0,0,1.24,5.82,2.36,2.36,0,0,0,.28.12h0l.28.1a3.8,3.8,0,0,1-2.6-3.41v-.22A3.74,3.74,0,0,1,96,89Z"/><path class="cls-2" d="M138.48,101.74,98.32,95.11a3.8,3.8,0,0,1-3.18-3.52v-.22A3.74,3.74,0,0,1,96,89l26.07-31.78a3.81,3.81,0,0,1,6.25,1.36l14.34,38.09A3.81,3.81,0,0,1,138.48,101.74Z"/><path class="cls-2" d="M122.07,57.19,96,89a3.81,3.81,0,0,0-.87,2.47A3.84,3.84,0,0,1,95.37,90s0-.08,0-.11a4.21,4.21,0,0,1,.33-.63l0-.05A3.25,3.25,0,0,1,96,89l25.82-31.47.09-.11.11-.12Z"/><path class="cls-3" d="M85.3,102.84l-6.18,7.53a2.79,2.79,0,0,1-4.78-.79l-3.44-9.12A2.8,2.8,0,0,1,74,96.71l9.61,1.59.2,0h.07l.06,0,.07,0,.06,0,.12,0,.06,0,.06,0,.11,0,.07,0,.1.06.05,0,.09.06.12.08.09.08a3,3,0,0,1,.43.44l.07.09a.43.43,0,0,1,0,.07l0,0a.21.21,0,0,0,0,.06l0,.06v0l.06.1h0l0,.1a3,3,0,0,1,.16.48.19.19,0,0,1,0,.07.43.43,0,0,0,0,0s0,.06,0,.08,0,.1,0,.14a.15.15,0,0,0,0,.07v.13A2.77,2.77,0,0,1,85.3,102.84Z"/></g></g></svg>