<svg xmlns="http://www.w3.org/2000/svg" viewBox="0 0 473.36 124.18"><defs><style>.cls-1{fill:#8cc63f;}</style></defs><title>Asset 2</title><g id="Layer_2" data-name="Layer 2"><g id="文字"><path class="cls-1" d="M211.16,41.44V74.65c0,4,1.89,5.93,6.62,5.93V94.21h-6.21c-10.93,0-16.07-8.09-16.07-18.22V41.44H171.27V74.65c0,4,1.88,5.93,6.61,5.93V94.21h-6.21c-10.93,0-16.06-8.09-16.06-18.22V41.44H134.28V94.21H121.06l-.68-3.9a21.41,21.41,0,0,1-13.5,5.12c-18.76,0-27.54-10.93-27.54-29V27.8H95.4V65.47c0,8.36,2,14.3,11.89,14.3,5.8,0,10.79-4.18,10.79-10.38V27.8h37.53V9.72h15.66V27.8H195.5V9.72h15.66V27.8h9.05V41.44Z"/><path class="cls-1" d="M328.42,43.46a20.8,20.8,0,0,0-8-1.89c-6.89,0-11.34,4.32-11.34,10.67v42H293.06V27.81h13.09l.67,4.18c.81-1.48,6.62-5.8,13.64-5.8,5,0,9.45,1.62,14,4.72Z"/><path class="cls-1" d="M405.28,94.22c-13.23-.14-20.65-4.32-20.65-18.36V13.09H372.48c-8.1,0-11.74,2.3-11.74,11.21v3.51H371V41.44H360.74V94.22H345.08V41.44h-5.67V27.81h5.67v-7.7C345.08,2.29,356.55,0,372.48,0h27.4V75.59c0,3.38,1.49,4.86,5.27,5Z"/><path class="cls-1" d="M473.36,27.81,443,109.34c-4.73,13.09-13.37,14.84-25.11,14.84h-2.83V110.42h2.42c7.43,0,9.45-1.35,11.21-5.94l3.78-10.13L408.7,27.81H426l14.71,46.43,15.39-46.43Z"/><path class="cls-1" d="M283.67,64.79H243.61c.54,9,5.12,15.64,14.7,15.64a19.77,19.77,0,0,0,14.3-6.33l10.11,9.71c-7.15,7.28-14.56,11.59-24.41,11.59-20.37,0-31.29-15-31.29-34.25,0-19,10.12-34.39,30.48-34.39,16.59,0,26.17,13.48,26.17,32.5Zm-15-10.25c-.81-7.15-3.92-12.81-11.87-12.81-8.1,0-12,5.12-13.09,12.81Z"/><path class="cls-1" d="M36.28,94.18H0V0H34C51.93,0,66.22,7.59,66.22,27.28a22.27,22.27,0,0,1-8.09,17.54c8,4.58,11.46,12.81,11.46,21.17C69.59,86.63,55,94.18,36.28,94.18Zm-2-78.09H17V39h17.4c8.23,0,15.24-1.76,15.24-11.6S42.35,16.09,34.26,16.09Zm2,37.9H17V78.13H36.28c8.63,0,16.32-1.48,16.32-12S44.91,54,36.28,54Z"/></g></g></svg>