<svg xmlns="http://www.w3.org/2000/svg" viewBox="0 0 458 120.16"><defs><style>.cls-1{fill:#fdf7fa;}</style></defs><title>Asset 13</title><g id="Layer_2" data-name="Layer 2"><g id="装飾"><path class="cls-1" d="M204.31,40.1V72.23c0,3.91,1.83,5.74,6.4,5.74V91.16h-6c-10.58,0-15.55-7.84-15.55-17.63V40.1H165.71V72.23c0,3.91,1.83,5.74,6.4,5.74V91.16h-6c-10.58,0-15.54-7.84-15.54-17.63V40.1H129.93V91.16h-12.8l-.65-3.78a20.72,20.72,0,0,1-13.06,5c-18.16,0-26.65-10.57-26.65-28.07V26.9H92.31V63.34c0,8.1,2,13.84,11.49,13.84,5.62,0,10.45-4,10.45-10.05V26.9h36.31V9.41h15.15V26.9h23.45V9.41h15.15V26.9h8.76V40.1Z"/><path class="cls-1" d="M317.77,42.05a20.31,20.31,0,0,0-7.71-1.82c-6.66,0-11,4.18-11,10.31V91.16H283.55V26.9h12.67l.65,4.05c.78-1.43,6.4-5.61,13.19-5.61,4.83,0,9.14,1.56,13.58,4.57Z"/><path class="cls-1" d="M392.13,91.16c-12.8-.13-20-4.18-20-17.76V12.67H360.39c-7.83,0-11.36,2.22-11.36,10.84V26.9H359V40.1H349V91.16H333.88V40.1H328.4V26.9h5.48V19.46C333.88,2.22,345,0,360.39,0h26.52V73.14c0,3.26,1.43,4.7,5.09,4.83Z"/><path class="cls-1" d="M458,26.9l-29.39,78.89c-4.57,12.67-12.93,14.37-24.29,14.37h-2.74V106.83h2.35c7.18,0,9.14-1.3,10.84-5.74l3.66-9.8-23-64.39h16.72l14.23,44.93L441.28,26.9Z"/><path class="cls-1" d="M274.46,62.69H235.71c.52,8.74,4.95,15.13,14.22,15.13a19.09,19.09,0,0,0,13.83-6.13l9.79,9.4c-6.92,7-14.09,11.22-23.62,11.22-19.71,0-30.28-14.49-30.28-33.15,0-18.4,9.79-33.27,29.5-33.27,16,0,25.31,13,25.31,31.45ZM260,52.77c-.79-6.92-3.79-12.4-11.49-12.4s-11.61,5-12.65,12.4Z"/><path class="cls-1" d="M35.1,91.12H0V0H32.88C50.24,0,64.07,7.35,64.07,26.4a21.54,21.54,0,0,1-7.83,17c7.7,4.44,11.1,12.4,11.1,20.49C67.34,83.82,53.24,91.12,35.1,91.12Zm-2-75.55H16.44V37.75H33.28c8,0,14.74-1.7,14.74-11.22S41,15.57,33.15,15.57Zm2,36.67H16.44V75.59H35.1c8.35,0,15.79-1.43,15.79-11.61S43.45,52.24,35.1,52.24Z"/></g></g></svg>