<svg xmlns="http://www.w3.org/2000/svg" xmlns:xlink="http://www.w3.org/1999/xlink" viewBox="0 0 177.31 166.4"><defs><style>.cls-1{fill:none;}.cls-2{fill:#8cc63f;}.cls-3{fill:url(#新規パターンスウォッチ_7);}</style><pattern id="新規パターンスウォッチ_7" data-name="新規パターンスウォッチ 7" width="4.11" height="4.11" patternUnits="userSpaceOnUse" viewBox="0 0 4.11 4.11"><rect class="cls-1" width="4.11" height="4.11"/><path class="cls-2" d="M4.11,0V4.11H0V0ZM3.6,2.05A1.55,1.55,0,1,0,2.05,3.6,1.54,1.54,0,0,0,3.6,2.05Z"/><path class="cls-1" d="M3.6,2.05A1.55,1.55,0,1,1,2.05.51,1.54,1.54,0,0,1,3.6,2.05Z"/></pattern></defs><title>Asset 1</title><g id="Layer_2" data-name="Layer 2"><g id="文字"><path class="cls-2" d="M154.27,128.61l-43.08,37a3.38,3.38,0,0,1-5.53-1.94l-10.48-55.8A3.39,3.39,0,0,1,99.63,104l53.56,18.83A3.38,3.38,0,0,1,154.27,128.61Z"/><path class="cls-2" d="M172.75,110.06,159,107.79l-57.37-9.46a2.93,2.93,0,0,1-.6-.15l-.2-.07-.23-.09,0,0-.1,0-.14-.08-.13-.07a4.84,4.84,0,0,1-.46-.33l-.09-.09h0l-.08-.08s0,0,0,0l-.07-.07,0,0-.06-.07,0,0L99.22,97l-.08-.11h0l0-.07,0-.06a.43.43,0,0,0,0-.07l0,0-.07-.11a.75.75,0,0,0-.07-.12l0-.11,0,0a1.17,1.17,0,0,1,0-.11h0a.36.36,0,0,0,0-.09s0,0,0-.06a.3.3,0,0,1,0-.1h0l0-.1,0,0,0-.08a.64.64,0,0,0,0-.07s0,0,0-.06l0-.08s0,0,0-.06,0,0,0-.07a.52.52,0,0,0,0-.11s0-.08,0-.12,0,0,0-.07a.11.11,0,0,0,0,0v-.07a0,0,0,0,1,0,0h0v-.06h0a.34.34,0,0,1,0-.1v-.22a3.85,3.85,0,0,1,.9-2.48l27-32.85,2.46-3,7.62-9.28,8.7-10.6a4,4,0,0,1,1.09-.93,4.06,4.06,0,0,0-1.11.94l-8.75,10.66-7.57,9.24-2.5,3L99.2,92a4.21,4.21,0,0,0-.59,1l0,.12a3.91,3.91,0,0,0-.08,2.59l0,.08.06.18c0,.06,0,.13.08.19l.11.22c0,.1.11.19.17.29a.56.56,0,0,1,0,.08l.06.07c0,.08.11.15.16.22l.07.08a.6.6,0,0,0,.08.08l.07.08a4,4,0,0,0,1,.74,4.16,4.16,0,0,0,1.19.39l71.14,11.73a3.86,3.86,0,0,0,2.3-.31A3.9,3.9,0,0,1,172.75,110.06Z"/><path class="cls-2" d="M76.46,100l9.94,1.64.2,0-.2,0Z"/><path class="cls-2" d="M76.83,113.26l-3.55-9.43A2.89,2.89,0,0,1,76.46,100l-30.53-5a2.89,2.89,0,0,0-3.18,3.87L57.2,137.18a2.9,2.9,0,0,0,4.95.81l19.62-23.92A2.89,2.89,0,0,1,76.83,113.26Zm-15.28,2.39A3.5,3.5,0,1,1,59,111.4,3.5,3.5,0,0,1,61.55,115.65Z"/><path class="cls-2" d="M85.88,94.85l-83-29.17a4.32,4.32,0,0,1-1.38-7.35L68.27,1a4.32,4.32,0,0,1,7,2.48L91.55,90A4.32,4.32,0,0,1,85.88,94.85Z"/><path class="cls-3" d="M175.19,109.69l-.15.07a3.9,3.9,0,0,1-2.29.3L159,107.79a3.93,3.93,0,0,0,4.18-5.28L142.72,48.2a3.93,3.93,0,0,0-6.47-1.38l8.7-10.6a4,4,0,0,1,1.09-.93l0,0,.07,0,.08,0a3.94,3.94,0,0,1,5.42,2.14l25.41,67.48A3.94,3.94,0,0,1,175.19,109.69Z"/><path class="cls-2" d="M101.62,98.33a2.93,2.93,0,0,1-.6-.15,3.91,3.91,0,0,1-2.68-3.43v-.31a3.85,3.85,0,0,1,.9-2.48l27-32.85,2.46-3,7.62-9.28-.07.07-.18.2-7.43,9.07L126,59.29,99.2,92a1.86,1.86,0,0,0-.21.28l0,.05-.06.09-.08.14a3.91,3.91,0,0,0-.29,3.21l.06.17c0,.06,0,.13.08.19l.11.22c0,.1.11.19.17.29a.56.56,0,0,1,0,.08l.06.07c0,.08.11.15.16.22l.07.08a.6.6,0,0,0,.08.08,3.78,3.78,0,0,0,1.34.94h0a4.24,4.24,0,0,0,.88.25l57.25,9.44.14,0Z"/><path class="cls-2" d="M159,107.79l-57.37-9.46a2.93,2.93,0,0,1-.6-.15,3.81,3.81,0,0,0,.51.12l45,7.42a3.93,3.93,0,0,0,4.32-5.26L134.77,57.79a4,4,0,0,0-6.14-1.69l7.62-9.28a3.93,3.93,0,0,1,6.47,1.38l20.45,54.31A3.93,3.93,0,0,1,159,107.79Z"/><path class="cls-2" d="M126.17,59.11l2.46-3,0,0,0,0a3.27,3.27,0,0,0-.52.53L99.13,91.93a3.94,3.94,0,0,0,1.28,6c.1,0,.19.09.29.12h0l.3.1a3.93,3.93,0,0,1-2.69-3.52v-.22a3.85,3.85,0,0,1,.9-2.48Z"/><path class="cls-2" d="M143.12,105.15l-41.5-6.85a3.92,3.92,0,0,1-3.29-3.64v-.22a3.85,3.85,0,0,1,.9-2.48l27-32.85a3.93,3.93,0,0,1,6.45,1.4l14.82,39.37A3.93,3.93,0,0,1,143.12,105.15Z"/><path class="cls-2" d="M126.17,59.11,99.22,92a3.87,3.87,0,0,0-.9,2.55,3.91,3.91,0,0,1,.25-1.46l0-.12a4.38,4.38,0,0,1,.34-.64l0-.05a2.26,2.26,0,0,1,.23-.31L125.9,59.4l.09-.11.12-.12Z"/><path class="cls-3" d="M88.16,106.28l-6.39,7.79a2.89,2.89,0,0,1-4.94-.81l-3.55-9.43A2.89,2.89,0,0,1,76.46,100l9.94,1.64.2,0h.07l.07,0,.06,0,.07,0,.12.05.06,0,.07,0,.11,0,.07,0,.11.06,0,0,.09.06.12.09a.39.39,0,0,1,.1.08,2.34,2.34,0,0,1,.44.45.86.86,0,0,1,.07.1l0,.06a.21.21,0,0,0,0,.06l0,.06a.16.16,0,0,1,0,.07h0l.06.11h0a1.17,1.17,0,0,0,0,.11,3,3,0,0,1,.17.5.14.14,0,0,1,0,.07s0,0,0,.05,0,.06,0,.09,0,.09,0,.14,0,.05,0,.07v.13A2.83,2.83,0,0,1,88.16,106.28Z"/></g></g></svg>